<svg id="svg" version="1.1" xmlns="http://www.w3.org/2000/svg" xmlns:xlink="http://www.w3.org/1999/xlink" width="400" height="400" viewBox="0, 0, 400,400"><g id="svgg"><path id="path0" d="M204.347 66.782 C 199.648 67.174,194.884 67.792,188.800 68.798 C 186.270 69.217,182.470 69.841,180.355 70.184 C 176.738 70.771,171.740 72.063,170.400 72.758 C 170.070 72.929,168.360 73.389,166.600 73.780 C 163.345 74.503,159.656 75.773,158.187 76.677 C 157.741 76.952,156.287 77.525,154.957 77.950 C 153.626 78.375,150.932 79.524,148.969 80.503 C 147.006 81.482,144.934 82.396,144.364 82.533 C 143.794 82.671,142.714 83.329,141.964 83.996 C 141.214 84.663,140.154 85.327,139.608 85.471 C 138.447 85.777,134.145 88.243,133.802 88.797 C 133.673 89.006,132.809 89.513,131.883 89.924 C 130.958 90.334,129.953 90.969,129.651 91.335 C 129.349 91.701,128.854 92.000,128.551 92.000 C 128.248 92.000,128.000 92.138,128.000 92.308 C 128.000 92.477,126.961 93.186,125.692 93.884 C 124.422 94.582,122.937 95.634,122.392 96.220 C 121.846 96.807,121.089 97.405,120.708 97.549 C 118.139 98.523,104.485 110.195,97.800 117.134 C 97.580 117.362,96.818 118.145,96.107 118.874 C 92.571 122.500,85.600 130.878,85.600 131.502 C 85.600 131.690,84.955 132.463,84.166 133.222 C 83.377 133.980,82.457 135.140,82.120 135.800 C 81.784 136.460,81.100 137.450,80.601 138.000 C 80.102 138.550,78.837 140.440,77.791 142.200 C 76.745 143.960,75.575 145.760,75.191 146.200 C 74.806 146.640,74.358 147.439,74.195 147.975 C 74.032 148.512,73.148 150.132,72.230 151.575 C 71.313 153.019,70.241 155.053,69.849 156.096 C 69.458 157.139,68.990 158.083,68.810 158.194 C 68.302 158.508,66.775 161.577,65.969 163.903 C 65.569 165.060,64.962 166.405,64.620 166.892 C 64.279 167.379,64.000 168.074,64.000 168.435 C 64.000 168.796,63.640 169.550,63.200 170.109 C 62.760 170.669,62.400 171.458,62.400 171.863 C 62.400 172.598,61.253 175.921,60.213 178.200 C 59.187 180.449,58.464 182.597,57.992 184.800 C 57.733 186.010,56.901 188.827,56.144 191.061 C 55.387 193.294,54.325 197.524,53.784 200.461 C 53.244 203.397,52.526 206.970,52.190 208.400 C 50.951 213.668,50.470 216.729,50.019 222.200 C 49.766 225.280,49.371 228.970,49.141 230.400 C 48.101 236.888,48.024 268.218,49.036 273.400 C 50.292 279.840,50.464 280.346,52.574 283.821 C 53.578 285.475,54.400 286.968,54.400 287.138 C 54.400 287.430,59.079 292.286,62.045 295.073 C 63.682 296.610,68.957 300.221,71.581 301.600 C 72.627 302.150,73.766 302.835,74.110 303.123 C 75.057 303.912,80.115 306.396,80.800 306.408 C 81.130 306.413,81.850 306.770,82.400 307.200 C 82.950 307.630,83.601 307.986,83.846 307.991 C 84.091 307.996,84.721 308.337,85.246 308.748 C 85.771 309.159,86.830 309.628,87.600 309.790 C 89.053 310.096,89.778 310.380,93.798 312.219 C 95.117 312.822,97.457 313.627,98.998 314.007 C 100.539 314.388,102.520 315.012,103.400 315.394 C 104.280 315.776,105.540 316.322,106.200 316.608 C 106.860 316.893,109.020 317.515,111.000 317.988 C 112.980 318.462,115.010 319.116,115.512 319.442 C 116.376 320.003,116.414 319.986,116.227 319.117 C 115.856 317.396,115.265 312.606,114.805 307.600 C 114.079 299.697,113.265 293.251,112.584 290.000 C 111.519 284.921,113.381 279.055,116.448 277.827 C 117.302 277.486,118.000 277.025,118.000 276.803 C 118.000 276.581,118.765 276.376,119.700 276.347 C 121.400 276.295,121.400 276.295,120.017 276.047 C 117.030 275.513,117.363 269.108,120.476 267.210 C 122.778 265.807,137.063 266.122,142.506 267.696 C 144.761 268.349,145.110 268.985,144.019 270.460 C 141.964 273.240,142.781 276.000,145.660 276.000 C 146.977 276.000,149.031 273.697,149.604 271.579 C 151.221 265.601,157.541 264.051,164.434 267.941 C 167.419 269.626,173.600 269.162,173.600 267.252 C 173.600 267.045,174.365 266.422,175.300 265.866 C 176.235 265.311,177.360 264.300,177.800 263.619 C 178.240 262.939,179.275 261.912,180.100 261.337 C 180.925 260.762,181.600 260.055,181.600 259.766 C 181.600 259.477,182.266 258.737,183.079 258.120 C 183.893 257.504,184.989 256.604,185.515 256.121 C 186.041 255.637,187.900 254.766,189.646 254.185 C 192.246 253.319,192.991 252.877,193.761 251.743 C 196.409 247.846,201.240 246.624,206.112 248.619 C 212.161 251.096,212.597 254.680,207.511 260.100 L 205.352 262.400 201.756 262.400 C 197.086 262.400,195.900 263.536,198.185 265.821 C 201.782 269.418,202.048 274.685,198.697 275.973 L 197.800 276.318 198.800 276.716 C 199.350 276.935,200.340 277.703,201.000 278.422 C 201.660 279.140,202.875 280.412,203.700 281.248 C 205.118 282.684,205.203 282.917,205.261 285.484 C 205.295 286.978,205.468 284.600,205.646 280.200 C 206.298 264.116,206.513 263.820,216.200 265.609 C 221.513 266.590,222.931 267.025,224.946 268.294 C 225.796 268.830,227.150 269.500,227.954 269.784 C 229.481 270.323,231.892 271.835,233.600 273.327 C 234.150 273.807,235.095 274.519,235.700 274.909 C 237.195 275.873,237.082 276.322,235.300 276.509 C 233.902 276.655,233.927 276.670,235.669 276.733 C 242.514 276.979,244.426 288.252,240.260 303.800 C 239.548 306.457,239.120 309.811,238.626 316.600 C 238.257 321.660,237.859 326.130,237.740 326.534 C 237.563 327.137,237.657 327.203,238.262 326.903 C 238.668 326.702,239.810 326.493,240.800 326.438 C 250.310 325.909,261.421 324.489,266.000 323.217 C 266.770 323.004,269.380 322.542,271.800 322.192 C 276.189 321.556,277.749 321.196,283.800 319.416 C 285.560 318.899,288.080 318.247,289.400 317.967 C 291.896 317.438,297.518 315.384,298.180 314.759 C 298.389 314.561,298.929 314.399,299.380 314.398 C 300.399 314.396,304.386 312.949,308.600 311.051 C 310.360 310.258,312.035 309.608,312.321 309.605 C 312.608 309.602,313.505 309.150,314.314 308.600 C 315.123 308.050,315.992 307.600,316.244 307.600 C 316.496 307.600,316.925 307.331,317.198 307.002 C 317.472 306.673,318.439 306.187,319.347 305.921 C 320.256 305.656,321.630 304.948,322.400 304.347 C 323.170 303.747,325.106 302.606,326.702 301.811 C 328.298 301.016,329.880 299.944,330.217 299.430 C 330.555 298.915,331.358 298.388,332.003 298.259 C 332.647 298.131,333.519 297.681,333.939 297.261 C 334.360 296.840,335.712 295.752,336.944 294.841 C 340.918 291.906,346.400 285.804,346.400 284.317 C 346.400 284.021,346.667 283.397,346.994 282.930 C 349.624 279.175,350.444 268.817,348.681 261.600 C 345.924 250.310,345.357 245.272,345.975 237.539 C 346.210 234.588,346.744 230.919,347.160 229.387 C 348.355 224.992,349.513 219.315,350.013 215.400 C 350.266 213.420,350.747 210.630,351.082 209.200 C 351.418 207.770,351.937 204.620,352.235 202.200 C 352.534 199.780,352.983 196.450,353.232 194.800 C 354.166 188.611,353.418 178.835,351.195 168.200 C 350.509 164.920,349.914 161.843,349.452 159.200 C 349.356 158.650,348.647 156.310,347.876 154.000 C 347.104 151.690,346.084 148.540,345.609 147.000 C 345.133 145.460,344.252 143.210,343.650 142.000 C 343.049 140.790,342.324 138.990,342.039 138.000 C 341.476 136.040,341.296 135.671,339.306 132.400 C 338.570 131.190,337.862 129.750,337.731 129.200 C 337.601 128.650,336.820 127.300,335.994 126.200 C 335.168 125.100,334.376 123.816,334.234 123.346 C 334.092 122.877,332.991 121.167,331.788 119.547 C 330.584 117.928,329.600 116.412,329.600 116.180 C 329.600 115.947,328.955 115.137,328.166 114.378 C 327.377 113.620,326.493 112.544,326.201 111.988 C 325.759 111.145,324.221 109.371,321.593 106.673 C 321.339 106.413,320.472 105.493,319.666 104.629 C 317.789 102.617,317.368 102.215,314.612 99.800 C 313.357 98.700,311.539 97.035,310.572 96.100 C 309.605 95.165,308.656 94.400,308.463 94.400 C 308.270 94.400,307.322 93.716,306.356 92.879 C 304.501 91.273,299.712 88.000,299.216 88.000 C 299.056 88.000,298.604 87.647,298.214 87.215 C 297.823 86.783,296.850 86.218,296.052 85.958 C 295.253 85.698,294.048 85.005,293.372 84.419 C 292.697 83.832,290.897 82.834,289.372 82.202 C 287.848 81.570,286.330 80.848,286.000 80.598 C 285.161 79.961,280.844 78.113,279.400 77.773 C 278.740 77.617,278.020 77.358,277.800 77.197 C 277.580 77.036,276.680 76.674,275.800 76.391 C 274.920 76.109,273.828 75.637,273.373 75.341 C 272.919 75.046,270.796 74.438,268.657 73.992 C 266.518 73.545,264.010 72.931,263.084 72.628 C 259.202 71.356,256.426 70.682,253.600 70.325 C 248.895 69.731,246.140 69.358,241.400 68.673 C 228.226 66.769,213.511 66.018,204.347 66.782 M139.600 128.567 C 147.356 131.844,150.788 137.561,150.787 147.200 C 150.786 154.252,150.011 156.920,146.201 163.000 C 142.250 169.304,132.565 174.433,125.703 173.855 C 121.874 173.532,115.412 170.543,114.128 168.502 C 113.747 167.896,112.914 166.789,112.278 166.041 C 108.895 162.068,107.843 151.480,110.176 144.869 C 112.341 138.731,119.190 131.097,124.079 129.372 C 124.987 129.052,125.926 128.630,126.165 128.434 C 128.063 126.885,135.800 126.961,139.600 128.567 M258.367 141.651 C 271.222 143.854,279.375 163.301,272.768 176.000 C 272.138 177.210,271.177 179.100,270.632 180.200 C 265.016 191.531,249.670 195.419,240.176 187.916 C 238.865 186.880,237.459 185.469,237.052 184.780 C 236.645 184.091,235.829 182.959,235.239 182.264 C 230.181 176.308,230.769 160.575,236.357 152.340 C 241.384 144.930,246.074 142.167,255.167 141.257 C 255.479 141.226,256.919 141.403,258.367 141.651 M143.895 193.501 C 145.727 195.121,147.503 199.398,150.743 210.000 C 151.635 212.918,153.290 215.968,156.100 219.870 C 157.145 221.322,158.000 222.746,158.000 223.036 C 158.000 224.198,157.020 225.594,155.797 226.175 C 155.086 226.512,154.021 227.421,153.431 228.195 C 150.812 231.628,145.600 231.229,145.600 227.595 C 145.600 227.212,145.336 226.679,145.013 226.411 C 144.211 225.745,141.772 221.268,141.429 219.832 C 141.276 219.189,140.802 218.220,140.375 217.678 C 139.949 217.136,139.600 216.511,139.600 216.290 C 139.600 216.069,139.254 215.148,138.830 214.244 C 138.132 212.752,137.312 209.735,135.776 203.000 C 134.162 195.925,135.737 191.999,140.188 192.001 C 141.944 192.002,142.416 192.193,143.895 193.501 M179.800 198.837 C 182.356 199.527,185.395 202.780,186.453 205.958 C 187.761 209.888,190.292 214.342,192.634 216.836 C 195.688 220.087,196.382 223.618,194.364 225.636 C 193.549 226.451,197.686 230.505,199.899 231.060 C 200.394 231.185,200.800 231.571,200.800 231.919 C 200.800 234.785,206.799 237.425,211.669 236.702 C 216.466 235.991,219.724 243.804,215.540 245.984 C 213.470 247.064,212.619 246.809,210.537 244.487 L 208.873 242.632 205.137 242.408 C 200.894 242.153,200.030 241.796,198.859 239.810 C 197.624 237.718,194.800 238.132,194.800 240.406 C 194.800 242.271,191.067 244.400,187.797 244.400 C 184.287 244.400,180.207 241.190,177.291 236.134 C 175.750 233.461,174.788 232.800,172.441 232.800 C 170.688 232.800,166.216 230.362,165.516 229.024 C 165.278 228.571,164.578 227.553,163.958 226.763 C 159.322 220.845,164.995 213.618,174.289 213.604 C 177.509 213.600,181.196 214.897,181.947 216.300 C 182.340 217.035,186.800 220.645,186.800 220.228 C 186.800 218.715,184.913 215.429,183.551 214.569 C 182.683 214.021,181.626 213.226,181.203 212.803 C 179.407 211.007,177.197 210.304,172.679 210.090 C 167.485 209.843,167.430 209.780,169.150 206.049 C 169.837 204.557,170.400 203.219,170.400 203.076 C 170.400 202.610,174.040 199.413,175.134 198.918 C 176.478 198.310,177.768 198.288,179.800 198.837 M229.098 206.637 C 231.681 208.301,231.873 212.420,229.492 215.087 C 221.157 224.423,215.522 229.161,211.471 230.239 C 208.479 231.036,202.050 230.995,201.736 230.177 C 200.888 227.968,207.536 219.353,214.000 214.282 C 215.430 213.161,217.164 211.648,217.854 210.921 C 218.544 210.195,219.386 209.600,219.725 209.600 C 220.064 209.600,220.898 208.925,221.578 208.100 C 223.568 205.685,226.680 205.080,229.098 206.637 M149.619 235.023 C 150.435 236.006,153.216 237.445,155.400 238.014 C 158.468 238.814,159.765 240.102,161.756 244.328 L 162.382 245.655 166.291 245.446 C 174.361 245.013,178.774 245.283,179.508 246.255 C 182.141 249.743,176.474 261.200,172.117 261.200 C 170.032 261.200,163.981 255.422,161.958 251.500 C 161.133 249.902,159.940 249.533,158.724 250.500 C 157.948 251.117,155.200 255.148,155.200 255.670 C 155.200 257.294,152.545 261.354,151.035 262.040 C 148.342 263.263,144.361 262.591,141.600 260.448 C 140.830 259.851,139.390 258.879,138.400 258.288 C 135.000 256.260,133.773 254.625,132.754 250.767 C 132.207 248.696,133.701 243.557,135.259 242.146 C 135.681 241.765,136.400 240.811,136.858 240.026 C 137.316 239.242,138.705 237.659,139.945 236.510 L 142.200 234.419 145.651 234.410 C 148.296 234.402,149.223 234.546,149.619 235.023 M227.618 253.143 L 229.634 255.086 229.517 258.422 C 229.356 263.025,228.530 263.580,222.906 262.870 C 217.342 262.167,216.656 261.377,217.638 256.797 C 218.846 251.162,223.715 249.380,227.618 253.143 M127.000 278.654 C 127.220 278.848,128.029 279.545,128.799 280.203 L 130.197 281.400 129.199 280.263 C 128.649 279.638,127.840 278.941,127.400 278.714 C 126.960 278.488,126.780 278.461,127.000 278.654 M188.378 280.300 L 187.000 281.800 188.500 280.422 C 189.896 279.138,190.184 278.800,189.878 278.800 C 189.812 278.800,189.137 279.475,188.378 280.300 M167.331 285.000 C 167.333 286.540,167.405 287.121,167.492 286.291 C 167.579 285.461,167.577 284.201,167.489 283.491 C 167.400 282.781,167.329 283.460,167.331 285.000 M224.229 285.229 C 224.076 286.579,224.033 287.766,224.133 287.867 C 224.234 287.967,224.444 286.947,224.600 285.600 C 224.756 284.253,224.799 283.066,224.695 282.962 C 224.591 282.858,224.381 283.878,224.229 285.229 M130.509 285.600 C 130.509 286.590,130.587 286.995,130.682 286.500 C 130.778 286.005,130.778 285.195,130.682 284.700 C 130.587 284.205,130.509 284.610,130.509 285.600 M186.528 288.000 C 186.528 289.430,186.601 290.015,186.689 289.300 C 186.778 288.585,186.778 287.415,186.689 286.700 C 186.601 285.985,186.528 286.570,186.528 288.000 M167.734 290.800 C 167.734 292.450,167.805 293.125,167.891 292.300 C 167.978 291.475,167.978 290.125,167.891 289.300 C 167.805 288.475,167.734 289.150,167.734 290.800 M204.920 292.000 C 204.920 293.210,204.995 293.705,205.087 293.100 C 205.178 292.495,205.178 291.505,205.087 290.900 C 204.995 290.295,204.920 290.790,204.920 292.000 M132.101 299.800 C 132.105 300.680,132.187 300.993,132.283 300.495 C 132.379 299.998,132.375 299.278,132.275 298.895 C 132.175 298.513,132.096 298.920,132.101 299.800 M150.142 301.800 C 150.141 303.780,150.208 304.640,150.292 303.712 C 150.376 302.784,150.377 301.164,150.295 300.112 C 150.212 299.060,150.143 299.820,150.142 301.800 M204.509 300.000 C 204.509 300.990,204.587 301.395,204.682 300.900 C 204.778 300.405,204.778 299.595,204.682 299.100 C 204.587 298.605,204.509 299.010,204.509 300.000 M222.101 301.000 C 222.105 301.880,222.187 302.193,222.283 301.695 C 222.379 301.198,222.375 300.478,222.275 300.095 C 222.175 299.713,222.096 300.120,222.101 301.000 M186.178 312.800 C 186.178 319.730,186.233 322.565,186.299 319.100 C 186.366 315.635,186.366 309.965,186.299 306.500 C 186.233 303.035,186.178 305.870,186.178 312.800 M168.148 305.600 C 168.148 307.910,168.214 308.855,168.295 307.700 C 168.376 306.545,168.376 304.655,168.295 303.500 C 168.214 302.345,168.148 303.290,168.148 305.600 M204.134 306.800 C 204.134 308.450,204.205 309.125,204.291 308.300 C 204.378 307.475,204.378 306.125,204.291 305.300 C 204.205 304.475,204.134 305.150,204.134 306.800 M221.309 311.600 C 221.309 312.590,221.387 312.995,221.482 312.500 C 221.578 312.005,221.578 311.195,221.482 310.700 C 221.387 310.205,221.309 310.610,221.309 311.600 M203.724 315.800 C 203.726 317.120,203.801 317.612,203.890 316.893 C 203.979 316.174,203.977 315.094,203.886 314.493 C 203.795 313.892,203.722 314.480,203.724 315.800 M168.140 317.200 C 168.140 319.070,168.209 319.835,168.293 318.900 C 168.377 317.965,168.377 316.435,168.293 315.500 C 168.209 314.565,168.140 315.330,168.140 317.200 M133.701 316.200 C 133.705 317.080,133.787 317.393,133.883 316.895 C 133.979 316.398,133.975 315.678,133.875 315.295 C 133.775 314.913,133.696 315.320,133.701 316.200 M150.901 318.200 C 150.905 319.080,150.987 319.393,151.083 318.895 C 151.179 318.398,151.175 317.678,151.075 317.295 C 150.975 316.913,150.896 317.320,150.901 318.200 M203.340 322.000 C 203.340 323.870,203.409 324.635,203.493 323.700 C 203.577 322.765,203.577 321.235,203.493 320.300 C 203.409 319.365,203.340 320.130,203.340 322.000 M167.670 327.867 C 167.631 328.784,167.496 329.864,167.370 330.267 C 167.153 330.956,167.167 330.957,167.593 330.295 C 167.842 329.907,167.977 328.827,167.893 327.895 L 167.740 326.200 167.670 327.867 M157.119 331.498 C 158.944 331.572,161.824 331.572,163.519 331.497 C 165.214 331.422,163.720 331.361,160.200 331.362 C 156.680 331.362,155.294 331.424,157.119 331.498 " stroke="none" fill="#fbc31c" fill-rule="evenodd"></path><path id="path1" d="M128.102 128.390 C 127.389 128.559,126.579 128.877,126.302 129.097 C 126.026 129.316,125.080 129.727,124.200 130.009 C 119.974 131.364,114.624 137.120,111.197 144.000 C 108.349 149.717,109.475 163.074,113.055 166.046 C 113.384 166.319,113.908 167.035,114.219 167.637 C 114.766 168.694,116.678 170.043,119.600 171.432 C 120.370 171.798,121.343 172.275,121.762 172.491 C 128.752 176.099,141.684 169.747,147.192 160.000 C 153.223 149.328,150.145 133.281,141.433 129.973 C 140.755 129.716,139.437 129.167,138.504 128.753 C 136.708 127.955,130.801 127.749,128.102 128.390 M250.600 142.366 C 249.064 142.622,248.441 142.900,244.132 145.257 C 240.824 147.067,235.141 154.050,234.279 157.365 C 232.201 165.354,231.918 167.396,232.389 171.000 C 232.619 172.760,233.165 175.370,233.601 176.800 C 234.037 178.230,234.395 179.684,234.397 180.030 C 234.399 180.377,234.867 181.097,235.438 181.630 C 236.009 182.164,236.926 183.365,237.476 184.300 C 238.026 185.235,238.597 186.000,238.745 186.000 C 238.893 186.000,239.911 186.781,241.007 187.736 C 244.415 190.703,251.818 192.223,256.092 190.832 C 256.811 190.598,258.291 190.125,259.379 189.781 C 262.676 188.739,269.625 182.220,270.192 179.636 C 270.340 178.961,270.645 178.296,270.869 178.158 C 271.914 177.512,273.511 172.790,274.011 168.871 C 276.139 152.173,265.315 139.919,250.600 142.366 M137.294 193.770 C 135.553 195.366,135.334 198.510,136.609 203.600 C 137.471 207.038,137.834 208.594,138.338 211.000 C 138.569 212.100,139.397 214.260,140.178 215.800 C 140.960 217.340,141.805 219.230,142.056 220.000 C 142.306 220.770,143.260 222.570,144.174 224.000 C 145.088 225.430,146.084 227.207,146.387 227.949 C 147.627 230.986,149.836 230.897,153.209 227.672 C 154.286 226.643,155.715 225.316,156.384 224.726 C 157.947 223.344,157.955 223.388,155.600 220.277 C 154.500 218.824,153.600 217.508,153.600 217.353 C 153.600 217.197,153.049 216.211,152.375 215.161 C 150.947 212.935,149.600 209.453,149.600 207.986 C 149.600 207.422,149.442 206.789,149.249 206.580 C 148.865 206.164,147.556 202.765,146.329 199.000 C 145.077 195.158,144.955 194.962,143.011 193.649 C 140.567 192.000,139.193 192.029,137.294 193.770 M173.229 201.272 C 171.848 202.440,170.672 203.792,170.533 204.372 C 170.397 204.937,169.952 206.068,169.543 206.884 C 168.456 209.056,168.459 209.058,172.700 209.353 C 179.351 209.816,185.488 213.657,187.002 218.304 C 188.037 221.483,191.573 225.200,193.562 225.200 C 195.365 225.200,194.164 219.561,191.958 217.672 C 190.573 216.486,186.400 208.930,186.400 207.609 C 186.400 206.269,184.329 202.839,182.765 201.587 C 178.805 198.416,176.688 198.346,173.229 201.272 M222.200 208.400 C 220.985 209.500,219.818 210.400,219.605 210.400 C 219.393 210.400,218.630 211.048,217.910 211.841 C 217.189 212.633,216.150 213.515,215.600 213.801 C 214.006 214.630,206.171 222.460,205.395 224.000 C 205.007 224.770,204.164 226.003,203.522 226.740 C 199.181 231.722,209.462 231.852,216.420 226.903 C 220.130 224.264,229.446 214.737,230.337 212.670 C 232.520 207.604,226.543 204.467,222.200 208.400 " stroke="none" fill="#36332b" fill-rule="evenodd"></path><path id="path2" d="M206.400 55.197 C 205.630 55.384,202.930 55.646,200.400 55.779 C 197.870 55.912,193.910 56.123,191.600 56.248 C 189.290 56.372,187.214 56.627,186.988 56.814 C 186.761 57.000,185.626 57.196,184.466 57.249 C 183.307 57.302,182.267 57.492,182.155 57.672 C 182.044 57.853,181.063 58.000,179.976 58.000 C 178.889 58.000,178.000 58.180,178.000 58.400 C 178.000 58.620,177.496 58.800,176.880 58.800 C 176.264 58.800,175.589 58.971,175.379 59.181 C 175.170 59.390,174.311 59.608,173.471 59.664 C 172.631 59.721,171.856 59.910,171.748 60.084 C 171.641 60.258,170.858 60.400,170.010 60.400 C 169.161 60.400,168.407 60.564,168.333 60.764 C 168.260 60.965,167.480 61.178,166.600 61.239 C 165.720 61.299,164.802 61.495,164.560 61.674 C 164.317 61.853,163.655 62.037,163.088 62.084 C 162.521 62.131,162.145 62.312,162.252 62.485 C 162.360 62.658,161.997 62.800,161.447 62.800 C 160.897 62.800,160.336 62.980,160.200 63.200 C 160.064 63.420,159.348 63.600,158.610 63.600 C 157.871 63.600,157.207 63.774,157.133 63.987 C 157.060 64.200,156.401 64.420,155.670 64.475 C 154.938 64.530,154.252 64.715,154.146 64.887 C 154.040 65.059,153.618 65.200,153.210 65.200 C 152.801 65.200,152.407 65.375,152.333 65.588 C 152.260 65.802,151.821 66.034,151.358 66.104 C 150.896 66.174,150.060 66.530,149.502 66.896 C 148.944 67.262,148.047 67.620,147.509 67.692 C 146.970 67.764,146.070 68.124,145.509 68.492 C 144.947 68.860,144.012 69.225,143.431 69.302 C 142.850 69.380,142.018 69.749,141.583 70.122 C 141.147 70.495,140.523 70.800,140.195 70.800 C 139.868 70.800,139.600 70.980,139.600 71.200 C 139.600 71.420,139.313 71.600,138.962 71.600 C 138.611 71.600,137.768 71.995,137.090 72.479 C 136.379 72.984,135.996 73.112,136.186 72.779 C 136.455 72.309,136.416 72.294,135.979 72.700 C 135.682 72.975,135.116 73.200,134.720 73.200 C 134.324 73.200,134.000 73.380,134.000 73.600 C 134.000 73.820,133.775 74.007,133.500 74.016 C 133.225 74.025,132.377 74.565,131.615 75.216 C 130.853 75.867,129.901 76.400,129.498 76.400 C 129.096 76.400,128.380 76.760,127.908 77.200 C 127.436 77.640,126.744 78.000,126.372 78.000 C 126.000 78.000,125.107 78.585,124.388 79.300 C 123.669 80.015,123.236 80.330,123.425 80.000 C 123.615 79.670,123.031 79.985,122.127 80.700 C 121.224 81.415,120.308 82.000,120.091 82.000 C 119.875 82.000,119.476 82.268,119.204 82.596 C 118.932 82.923,118.505 83.074,118.255 82.931 C 118.005 82.789,117.934 82.820,118.098 83.001 C 118.382 83.313,114.799 86.000,114.099 86.000 C 113.916 86.000,113.092 86.636,112.268 87.414 C 111.401 88.232,110.564 88.711,110.284 88.550 C 110.018 88.397,109.934 88.419,110.097 88.600 C 110.404 88.939,108.825 90.266,108.312 90.101 C 108.154 90.050,107.832 90.366,107.598 90.804 C 107.364 91.242,107.017 91.600,106.828 91.600 C 106.639 91.600,105.907 92.140,105.200 92.800 C 104.493 93.460,103.664 94.000,103.358 94.000 C 103.051 94.000,102.800 94.276,102.800 94.613 C 102.800 94.949,102.485 95.341,102.100 95.483 C 101.715 95.625,101.310 95.853,101.200 95.990 C 101.090 96.127,100.413 96.649,99.695 97.150 C 98.978 97.651,98.511 98.255,98.657 98.492 C 98.812 98.743,98.737 98.808,98.479 98.649 C 98.233 98.497,97.740 98.826,97.372 99.387 C 97.007 99.944,96.563 100.400,96.386 100.400 C 95.720 100.400,83.996 112.470,84.255 112.889 C 84.405 113.132,84.340 113.210,84.106 113.066 C 83.877 112.924,83.188 113.481,82.575 114.304 C 81.963 115.127,80.863 116.364,80.131 117.054 C 79.399 117.744,78.800 118.503,78.800 118.742 C 78.800 118.981,78.260 119.575,77.600 120.063 C 76.940 120.551,76.400 121.187,76.400 121.475 C 76.400 121.764,76.241 122.000,76.046 122.000 C 75.851 122.000,75.397 122.620,75.038 123.377 C 74.678 124.135,73.938 125.106,73.392 125.535 C 72.846 125.964,72.400 126.604,72.400 126.958 C 72.400 127.311,72.220 127.600,72.000 127.600 C 71.780 127.600,71.600 127.864,71.600 128.186 C 71.600 128.508,71.240 128.965,70.800 129.200 C 70.360 129.435,70.000 129.892,70.000 130.214 C 70.000 130.536,69.863 130.800,69.696 130.800 C 69.529 130.800,69.156 131.179,68.867 131.642 C 68.514 132.206,68.496 132.388,68.812 132.193 C 69.071 132.032,68.984 132.359,68.617 132.917 C 68.251 133.476,67.693 134.032,67.376 134.154 C 67.059 134.275,66.800 134.568,66.800 134.804 C 66.800 135.040,66.440 135.620,66.000 136.092 C 65.560 136.564,65.200 137.187,65.200 137.475 C 65.200 137.764,65.020 138.000,64.800 138.000 C 64.580 138.000,64.400 138.360,64.400 138.800 C 64.400 139.240,64.263 139.600,64.096 139.600 C 63.929 139.600,63.556 139.979,63.267 140.442 C 62.831 141.139,62.832 141.237,63.270 141.011 C 63.562 140.862,63.395 141.097,62.900 141.534 C 62.405 141.971,62.000 142.670,62.000 143.089 C 62.000 143.507,61.640 144.236,61.200 144.708 C 60.760 145.180,60.400 145.844,60.400 146.183 C 60.400 146.522,60.220 146.800,60.000 146.800 C 59.780 146.800,59.600 146.997,59.600 147.238 C 59.600 147.479,59.205 148.232,58.721 148.910 C 58.238 149.589,58.086 149.994,58.383 149.810 C 58.680 149.627,58.386 150.269,57.729 151.238 C 56.451 153.123,55.970 154.125,55.728 155.400 C 55.645 155.840,55.402 156.260,55.188 156.333 C 54.975 156.407,54.800 156.812,54.800 157.233 C 54.800 157.655,54.620 158.000,54.400 158.000 C 54.180 158.000,54.000 158.439,54.000 158.976 C 54.000 159.513,53.820 160.064,53.600 160.200 C 53.380 160.336,53.200 160.797,53.200 161.224 C 53.200 161.651,53.020 162.000,52.800 162.000 C 52.580 162.000,52.400 162.439,52.400 162.976 C 52.400 163.513,52.220 164.064,52.000 164.200 C 51.780 164.336,51.596 164.842,51.591 165.324 C 51.586 165.806,51.230 166.650,50.800 167.200 C 50.370 167.750,50.014 168.605,50.009 169.100 C 50.004 169.595,49.820 170.000,49.600 170.000 C 49.380 170.000,49.200 170.641,49.200 171.424 C 49.200 172.207,49.058 172.760,48.885 172.652 C 48.712 172.545,48.533 172.940,48.489 173.529 C 48.414 174.516,48.064 175.504,47.153 177.295 C 46.959 177.677,46.800 178.521,46.800 179.171 C 46.800 179.821,46.620 180.464,46.400 180.600 C 46.180 180.736,46.000 181.276,46.000 181.800 C 46.000 182.324,45.859 182.840,45.687 182.946 C 45.515 183.052,45.330 183.726,45.275 184.443 C 45.221 185.160,45.040 185.939,44.873 186.173 C 44.706 186.408,44.516 187.140,44.450 187.800 C 44.385 188.460,44.167 189.171,43.966 189.380 C 43.765 189.589,43.600 190.433,43.600 191.256 C 43.600 192.079,43.420 192.864,43.200 193.000 C 42.980 193.136,42.800 193.766,42.800 194.400 C 42.800 195.034,42.654 195.643,42.476 195.753 C 42.298 195.863,42.108 196.804,42.054 197.844 C 42.000 198.884,41.786 200.052,41.578 200.441 C 41.370 200.829,41.200 201.959,41.200 202.950 C 41.200 203.942,41.020 204.864,40.800 205.000 C 40.580 205.136,40.400 206.777,40.400 208.647 C 40.400 210.517,40.256 211.958,40.080 211.849 C 39.904 211.741,39.716 212.306,39.662 213.107 C 39.608 213.907,39.402 214.756,39.204 214.995 C 39.006 215.233,38.802 216.987,38.749 218.893 C 38.697 220.798,38.517 222.272,38.350 222.169 C 38.182 222.066,38.053 222.891,38.061 224.003 C 38.070 225.115,37.895 226.245,37.672 226.513 C 37.329 226.926,36.924 243.215,37.125 248.500 C 37.156 249.325,37.021 250.000,36.826 250.000 C 36.345 250.000,36.348 273.121,36.829 273.418 C 37.033 273.544,37.200 274.807,37.200 276.224 C 37.200 277.675,37.375 278.800,37.600 278.800 C 37.820 278.800,38.000 279.520,38.000 280.400 C 38.000 281.280,38.180 282.000,38.400 282.000 C 38.620 282.000,38.800 282.540,38.800 283.200 C 38.800 283.860,38.935 284.401,39.100 284.403 C 39.265 284.405,39.608 284.855,39.863 285.404 C 40.117 285.952,40.162 286.300,39.963 286.177 C 39.764 286.054,40.118 286.950,40.750 288.169 C 41.383 289.388,41.698 290.270,41.450 290.128 C 41.203 289.987,41.405 290.317,41.900 290.861 C 42.395 291.406,42.800 292.075,42.800 292.347 C 42.800 292.620,43.339 293.419,43.998 294.122 C 44.657 294.825,45.197 295.625,45.198 295.900 C 45.199 296.175,45.336 296.400,45.502 296.400 C 45.669 296.400,46.044 296.940,46.336 297.600 C 46.628 298.260,47.128 298.800,47.446 298.800 C 47.765 298.800,48.145 299.115,48.292 299.500 C 48.734 300.660,52.422 304.032,52.931 303.740 C 53.189 303.593,53.271 303.615,53.113 303.790 C 52.955 303.965,53.613 304.629,54.575 305.266 C 55.537 305.904,56.425 306.689,56.549 307.013 C 56.673 307.336,57.023 307.600,57.325 307.600 C 57.628 307.600,58.202 307.960,58.600 308.400 C 58.998 308.840,59.486 309.200,59.683 309.200 C 59.881 309.200,60.693 309.642,61.488 310.182 C 62.283 310.723,63.111 311.055,63.329 310.921 C 63.549 310.784,63.598 310.880,63.438 311.138 C 63.269 311.412,63.407 311.600,63.776 311.600 C 64.119 311.600,64.400 311.780,64.400 312.000 C 64.400 312.220,64.672 312.400,65.005 312.400 C 65.777 312.400,67.204 313.199,68.043 314.100 C 68.401 314.485,68.988 314.800,69.347 314.800 C 69.706 314.800,70.000 314.980,70.000 315.200 C 70.000 315.420,70.416 315.600,70.925 315.600 C 71.433 315.600,72.236 315.960,72.708 316.400 C 73.180 316.840,73.844 317.200,74.183 317.200 C 74.522 317.200,74.800 317.380,74.800 317.600 C 74.800 317.820,75.166 318.000,75.614 318.000 C 76.062 318.000,76.899 318.308,77.474 318.685 C 78.049 319.062,78.800 319.412,79.143 319.462 C 79.726 319.548,80.870 320.020,82.495 320.847 C 82.877 321.041,83.462 321.200,83.795 321.200 C 84.128 321.200,84.400 321.380,84.400 321.600 C 84.400 321.820,84.760 322.000,85.200 322.000 C 85.640 322.000,86.000 322.180,86.000 322.400 C 86.000 322.620,86.510 322.800,87.133 322.800 C 87.757 322.800,88.391 322.925,88.544 323.077 C 88.696 323.229,89.221 323.415,89.710 323.489 C 90.200 323.563,90.660 323.798,90.733 324.012 C 90.807 324.225,91.392 324.400,92.033 324.400 C 92.675 324.400,93.200 324.580,93.200 324.800 C 93.200 325.020,93.524 325.200,93.920 325.200 C 94.316 325.200,94.882 325.425,95.179 325.700 C 95.610 326.101,95.660 326.099,95.429 325.690 C 95.267 325.404,95.774 325.536,96.582 325.990 C 97.375 326.436,98.559 326.800,99.212 326.800 C 99.865 326.800,100.400 326.980,100.400 327.200 C 100.400 327.420,100.942 327.600,101.605 327.600 C 102.268 327.600,103.213 327.808,103.705 328.062 C 104.197 328.316,104.870 328.650,105.200 328.803 C 105.530 328.956,105.858 329.468,105.928 329.941 C 105.998 330.413,106.223 330.800,106.428 330.800 C 106.633 330.800,106.800 331.048,106.800 331.351 C 106.800 331.654,107.068 332.124,107.396 332.396 C 107.723 332.668,107.907 333.026,107.805 333.192 C 107.703 333.358,107.975 333.815,108.409 334.209 C 108.844 334.602,109.200 335.256,109.200 335.662 C 109.200 336.068,109.380 336.400,109.600 336.400 C 109.820 336.400,110.000 336.760,110.000 337.200 C 110.000 337.640,110.225 338.000,110.500 338.001 C 110.775 338.001,111.630 338.541,112.400 339.200 C 113.170 339.859,114.025 340.399,114.300 340.399 C 114.575 340.400,114.800 340.580,114.800 340.800 C 114.800 341.020,115.145 341.200,115.567 341.200 C 115.988 341.200,116.393 341.371,116.467 341.580 C 116.540 341.789,117.365 342.004,118.300 342.058 C 119.235 342.112,120.000 342.284,120.000 342.440 C 120.000 342.595,125.526 342.748,132.281 342.779 C 139.035 342.810,144.751 342.994,144.984 343.187 C 145.408 343.538,194.515 343.341,203.128 342.953 C 205.787 342.833,207.851 342.909,208.128 343.137 C 208.716 343.620,232.414 343.687,232.992 343.207 C 233.217 343.020,234.481 342.820,235.800 342.762 C 237.195 342.701,238.750 342.352,239.512 341.929 C 240.234 341.528,241.015 341.200,241.248 341.200 C 241.481 341.200,242.029 340.795,242.466 340.300 C 242.903 339.805,243.138 339.638,242.989 339.930 C 242.763 340.368,242.861 340.369,243.558 339.933 C 244.021 339.644,244.400 339.271,244.400 339.104 C 244.400 338.937,244.814 338.800,245.320 338.800 C 245.826 338.800,246.414 338.626,246.627 338.413 C 246.839 338.201,247.609 337.982,248.337 337.926 C 249.065 337.871,249.748 337.685,249.854 337.513 C 249.960 337.341,250.991 337.200,252.144 337.200 C 253.297 337.200,254.411 337.033,254.620 336.830 C 254.829 336.626,255.990 336.414,257.200 336.358 C 258.410 336.301,259.492 336.121,259.605 335.958 C 259.718 335.794,261.428 335.618,263.405 335.566 C 265.382 335.514,267.204 335.316,267.454 335.125 C 267.703 334.935,268.603 334.759,269.454 334.734 C 270.304 334.709,271.180 334.555,271.400 334.392 C 271.784 334.107,273.168 333.828,276.600 333.344 C 277.480 333.220,278.371 332.956,278.580 332.759 C 278.789 332.562,279.633 332.400,280.456 332.400 C 281.279 332.400,282.064 332.220,282.200 332.000 C 282.336 331.780,283.232 331.600,284.190 331.600 C 285.149 331.600,285.993 331.429,286.067 331.220 C 286.140 331.011,286.977 330.795,287.926 330.740 C 288.875 330.685,289.740 330.496,289.849 330.320 C 289.958 330.144,290.566 330.000,291.200 330.000 C 291.834 330.000,292.464 329.820,292.600 329.600 C 292.736 329.380,293.341 329.200,293.944 329.200 C 294.547 329.200,295.215 329.025,295.429 328.811 C 295.642 328.598,296.214 328.362,296.698 328.288 C 297.183 328.214,297.704 328.029,297.856 327.877 C 298.009 327.725,298.517 327.600,298.987 327.600 C 299.456 327.600,300.011 327.433,300.220 327.229 C 300.429 327.025,301.140 326.784,301.800 326.692 C 303.206 326.498,304.185 326.160,305.700 325.346 C 306.305 325.021,306.800 324.891,306.800 325.057 C 306.800 325.224,307.016 325.144,307.280 324.880 C 307.544 324.616,308.069 324.400,308.447 324.400 C 308.824 324.400,309.193 324.222,309.267 324.003 C 309.340 323.785,309.882 323.567,310.471 323.519 C 311.060 323.470,311.455 323.288,311.348 323.115 C 311.178 322.840,312.798 322.601,313.730 322.763 C 313.911 322.794,313.945 322.635,313.806 322.410 C 313.658 322.171,313.979 322.000,314.576 322.000 C 315.139 322.000,315.600 321.820,315.600 321.600 C 315.600 321.380,315.960 321.200,316.400 321.200 C 316.840 321.200,317.200 321.020,317.200 320.800 C 317.200 320.580,317.560 320.400,318.000 320.400 C 318.440 320.400,318.800 320.220,318.800 320.000 C 318.800 319.780,319.239 319.600,319.776 319.600 C 320.313 319.600,320.864 319.420,321.000 319.200 C 321.136 318.980,321.597 318.800,322.024 318.800 C 322.451 318.800,322.800 318.620,322.800 318.400 C 322.800 318.180,323.160 318.000,323.600 318.000 C 324.040 318.000,324.400 317.850,324.400 317.668 C 324.400 317.354,325.283 316.857,327.600 315.865 C 328.150 315.629,329.034 315.068,329.565 314.618 C 330.128 314.140,330.387 314.050,330.188 314.400 C 329.814 315.056,330.462 314.632,332.170 313.100 C 332.600 312.715,333.187 312.400,333.475 312.400 C 333.764 312.400,334.000 312.220,334.000 312.000 C 334.000 311.780,334.234 311.600,334.520 311.600 C 335.256 311.600,337.193 310.659,337.197 310.300 C 337.199 310.135,337.449 310.000,337.753 310.000 C 338.056 310.000,338.893 309.415,339.612 308.700 C 340.331 307.985,340.784 307.638,340.618 307.930 C 340.368 308.368,340.461 308.369,341.158 307.933 C 341.621 307.644,342.000 307.271,342.000 307.104 C 342.000 306.937,342.264 306.800,342.586 306.800 C 342.908 306.800,343.365 306.440,343.600 306.000 C 343.835 305.560,344.292 305.200,344.614 305.200 C 344.936 305.200,345.200 305.020,345.200 304.800 C 345.200 304.580,345.452 304.400,345.759 304.400 C 346.321 304.400,352.400 298.700,352.400 298.173 C 352.400 298.018,352.805 297.497,353.300 297.014 C 354.785 295.566,355.600 294.426,355.600 293.795 C 355.600 293.468,355.780 293.200,356.000 293.200 C 356.220 293.200,356.400 292.922,356.400 292.583 C 356.400 292.244,356.760 291.580,357.200 291.108 C 357.640 290.636,358.000 289.833,358.000 289.325 C 358.000 288.816,358.180 288.400,358.400 288.400 C 358.620 288.400,358.800 288.051,358.800 287.624 C 358.800 287.197,358.980 286.736,359.200 286.600 C 359.420 286.464,359.600 285.474,359.600 284.400 C 359.600 283.326,359.743 282.359,359.917 282.251 C 360.092 282.143,360.285 280.560,360.348 278.732 C 360.410 276.904,360.606 275.226,360.784 275.004 C 361.277 274.386,361.309 267.315,360.820 267.012 C 360.585 266.867,360.400 265.385,360.400 263.656 C 360.400 261.953,360.221 260.381,360.003 260.163 C 359.784 259.944,359.584 258.376,359.559 256.679 C 359.533 254.982,359.352 253.494,359.156 253.373 C 358.960 253.252,358.800 252.184,358.800 251.000 C 358.800 249.816,358.620 248.736,358.400 248.600 C 357.934 248.312,357.839 236.547,358.300 236.262 C 358.465 236.160,358.658 235.032,358.728 233.755 C 358.798 232.479,358.970 231.248,359.111 231.021 C 359.252 230.793,359.433 229.795,359.513 228.803 C 359.593 227.811,359.826 226.829,360.030 226.620 C 360.233 226.411,360.400 225.502,360.400 224.600 C 360.400 223.698,360.565 222.789,360.766 222.580 C 360.968 222.371,361.233 221.120,361.355 219.800 C 361.788 215.126,362.086 212.995,362.361 212.600 C 362.515 212.380,362.694 211.030,362.759 209.600 C 362.825 208.170,363.037 206.806,363.231 206.569 C 363.711 205.981,363.689 170.389,363.207 169.809 C 363.000 169.560,362.801 168.106,362.765 166.578 C 362.728 165.050,362.551 163.613,362.370 163.385 C 362.190 163.156,362.003 162.166,361.956 161.185 C 361.908 160.203,361.736 159.220,361.573 159.000 C 361.411 158.780,361.222 158.060,361.154 157.400 C 361.086 156.740,360.889 156.002,360.716 155.760 C 360.542 155.517,360.363 154.855,360.316 154.288 C 360.269 153.721,360.088 153.345,359.915 153.452 C 359.742 153.560,359.600 152.837,359.600 151.847 C 359.600 150.857,359.420 149.936,359.200 149.800 C 358.980 149.664,358.800 149.059,358.800 148.456 C 358.800 147.853,358.633 147.189,358.429 146.980 C 358.225 146.771,357.984 146.060,357.892 145.400 C 357.801 144.740,357.594 143.899,357.433 143.531 C 357.271 143.163,357.101 142.605,357.055 142.291 C 357.008 141.977,356.666 141.255,356.294 140.687 C 355.921 140.119,355.576 139.114,355.525 138.455 C 355.475 137.795,355.291 137.344,355.117 137.451 C 354.943 137.559,354.800 137.107,354.800 136.447 C 354.800 135.787,354.620 135.136,354.400 135.000 C 354.180 134.864,354.000 134.403,354.000 133.976 C 354.000 133.549,353.820 133.200,353.600 133.200 C 353.380 133.200,353.196 132.795,353.191 132.300 C 353.186 131.805,352.830 130.950,352.400 130.400 C 351.970 129.850,351.614 129.012,351.609 128.538 C 351.599 127.548,350.014 124.400,349.526 124.400 C 349.347 124.400,349.200 124.040,349.200 123.600 C 349.200 123.160,349.064 122.800,348.898 122.800 C 348.731 122.800,348.346 122.215,348.041 121.500 C 347.736 120.785,347.107 119.766,346.643 119.235 C 346.179 118.705,346.070 118.425,346.400 118.612 C 347.132 119.029,346.227 117.746,345.200 116.913 C 344.870 116.645,344.751 116.420,344.936 116.413 C 345.120 116.406,344.804 115.845,344.233 115.166 C 343.662 114.488,343.314 113.740,343.459 113.504 C 343.616 113.251,343.535 113.193,343.262 113.362 C 342.995 113.527,342.800 113.405,342.800 113.073 C 342.800 112.757,342.527 112.271,342.193 111.994 C 341.859 111.717,341.283 110.840,340.913 110.045 C 340.543 109.250,339.960 108.330,339.618 108.000 C 339.275 107.670,338.748 106.920,338.448 106.334 C 338.147 105.747,337.563 105.179,337.150 105.071 C 336.738 104.963,336.400 104.588,336.400 104.237 C 336.400 103.887,336.220 103.600,336.000 103.600 C 335.780 103.600,335.600 103.342,335.600 103.026 C 335.600 102.710,334.598 101.450,333.374 100.226 C 332.150 99.002,331.272 98.000,331.423 98.000 C 331.574 98.000,331.476 97.732,331.204 97.404 C 330.932 97.077,330.545 96.910,330.345 97.034 C 330.144 97.158,330.030 97.021,330.090 96.730 C 330.151 96.438,329.975 96.245,329.700 96.300 C 329.425 96.355,329.244 96.265,329.297 96.100 C 329.440 95.656,328.304 94.264,327.394 93.767 C 326.957 93.529,326.422 92.944,326.205 92.467 C 325.988 91.990,325.617 91.600,325.380 91.600 C 325.144 91.600,324.551 91.060,324.063 90.400 C 323.575 89.740,322.974 89.200,322.728 89.200 C 322.482 89.200,321.417 88.300,320.363 87.200 C 319.308 86.100,318.253 85.200,318.019 85.200 C 317.785 85.200,317.028 84.660,316.337 84.000 C 315.646 83.340,314.853 82.800,314.574 82.800 C 314.295 82.800,314.006 82.665,313.932 82.500 C 313.858 82.335,313.274 81.750,312.634 81.200 C 311.994 80.650,311.617 80.470,311.795 80.800 C 311.974 81.130,311.531 80.815,310.812 80.100 C 310.093 79.385,309.258 78.800,308.956 78.800 C 308.654 78.800,308.182 78.440,307.907 78.000 C 307.632 77.560,307.091 77.200,306.704 77.200 C 306.317 77.200,306.000 77.020,306.000 76.800 C 306.000 76.580,305.722 76.400,305.383 76.400 C 305.044 76.400,304.380 76.040,303.908 75.600 C 303.436 75.160,302.813 74.800,302.525 74.800 C 302.236 74.800,302.000 74.620,302.000 74.400 C 302.000 74.180,301.640 74.000,301.200 74.000 C 300.760 74.000,300.400 73.820,300.400 73.600 C 300.400 73.380,300.040 73.200,299.600 73.200 C 299.160 73.200,298.800 73.020,298.800 72.800 C 298.800 72.580,298.440 72.400,298.000 72.400 C 297.560 72.400,297.200 72.220,297.200 72.000 C 297.200 71.780,296.840 71.600,296.400 71.600 C 295.960 71.600,295.600 71.420,295.600 71.200 C 295.600 70.980,295.240 70.800,294.800 70.800 C 294.360 70.800,294.000 70.620,294.000 70.400 C 294.000 70.180,293.676 70.000,293.280 70.000 C 292.884 70.000,292.318 69.775,292.021 69.500 C 291.583 69.094,291.543 69.112,291.806 69.600 C 291.984 69.930,291.683 69.795,291.139 69.300 C 290.594 68.805,289.873 68.400,289.536 68.400 C 289.199 68.400,288.310 68.091,287.561 67.713 C 286.813 67.335,285.763 66.965,285.229 66.890 C 284.695 66.815,283.768 66.404,283.167 65.977 C 282.567 65.550,281.519 65.200,280.838 65.200 C 280.157 65.200,279.600 65.020,279.600 64.800 C 279.600 64.580,279.071 64.400,278.424 64.400 C 277.777 64.400,277.136 64.220,277.000 64.000 C 276.864 63.780,276.324 63.600,275.800 63.600 C 275.276 63.600,274.736 63.420,274.600 63.200 C 274.464 62.980,273.733 62.800,272.976 62.800 C 272.219 62.800,271.600 62.620,271.600 62.400 C 271.600 62.180,270.981 62.000,270.224 62.000 C 269.467 62.000,268.736 61.820,268.600 61.600 C 268.464 61.380,267.744 61.200,267.000 61.200 C 266.256 61.200,265.557 61.054,265.447 60.876 C 265.337 60.698,264.385 60.507,263.333 60.453 C 262.280 60.398,261.324 60.223,261.209 60.062 C 261.094 59.902,260.280 59.718,259.400 59.653 C 258.520 59.588,257.629 59.369,257.420 59.167 C 257.211 58.965,256.356 58.800,255.520 58.800 C 254.684 58.800,254.000 58.654,254.000 58.475 C 254.000 58.296,253.145 58.106,252.100 58.053 C 251.055 58.000,250.140 57.787,250.067 57.579 C 249.993 57.370,248.879 57.200,247.590 57.200 C 246.302 57.200,245.153 57.048,245.039 56.863 C 244.924 56.678,242.537 56.486,239.734 56.436 C 236.931 56.387,234.449 56.224,234.219 56.074 C 233.233 55.430,208.628 54.654,206.400 55.197 M231.400 67.386 C 234.480 67.744,238.980 68.323,241.400 68.673 C 246.140 69.358,248.895 69.731,253.600 70.325 C 256.426 70.682,259.202 71.356,263.084 72.628 C 264.010 72.931,266.518 73.545,268.657 73.992 C 270.796 74.438,272.919 75.046,273.373 75.341 C 273.828 75.637,274.920 76.109,275.800 76.391 C 276.680 76.674,277.580 77.036,277.800 77.197 C 278.020 77.358,278.740 77.617,279.400 77.773 C 280.844 78.113,285.161 79.961,286.000 80.598 C 286.330 80.848,287.848 81.570,289.372 82.202 C 290.897 82.834,292.697 83.832,293.372 84.419 C 294.048 85.005,295.253 85.698,296.052 85.958 C 296.850 86.218,297.823 86.783,298.214 87.215 C 298.604 87.647,299.056 88.000,299.216 88.000 C 299.712 88.000,304.501 91.273,306.356 92.879 C 307.322 93.716,308.270 94.400,308.463 94.400 C 308.656 94.400,309.605 95.165,310.572 96.100 C 311.539 97.035,313.357 98.700,314.612 99.800 C 317.368 102.215,317.789 102.617,319.666 104.629 C 320.472 105.493,321.339 106.413,321.593 106.673 C 324.221 109.371,325.759 111.145,326.201 111.988 C 326.493 112.544,327.377 113.620,328.166 114.378 C 328.955 115.137,329.600 115.947,329.600 116.180 C 329.600 116.412,330.584 117.928,331.788 119.547 C 332.991 121.167,334.092 122.877,334.234 123.346 C 334.376 123.816,335.168 125.100,335.994 126.200 C 336.820 127.300,337.601 128.650,337.731 129.200 C 337.862 129.750,338.570 131.190,339.306 132.400 C 341.296 135.671,341.476 136.040,342.039 138.000 C 342.324 138.990,343.049 140.790,343.650 142.000 C 344.252 143.210,345.133 145.460,345.609 147.000 C 346.084 148.540,347.104 151.690,347.876 154.000 C 348.647 156.310,349.356 158.650,349.452 159.200 C 349.914 161.843,350.509 164.920,351.195 168.200 C 353.418 178.835,354.166 188.611,353.232 194.800 C 352.983 196.450,352.534 199.780,352.235 202.200 C 351.937 204.620,351.418 207.770,351.082 209.200 C 350.747 210.630,350.266 213.420,350.013 215.400 C 349.513 219.315,348.355 224.992,347.160 229.387 C 346.744 230.919,346.210 234.588,345.975 237.539 C 345.357 245.272,345.924 250.310,348.681 261.600 C 350.444 268.817,349.624 279.175,346.994 282.930 C 346.667 283.397,346.400 284.021,346.400 284.317 C 346.400 285.804,340.918 291.906,336.944 294.841 C 335.712 295.752,334.360 296.840,333.939 297.261 C 333.519 297.681,332.647 298.131,332.003 298.259 C 331.358 298.388,330.555 298.915,330.217 299.430 C 329.880 299.944,328.298 301.016,326.702 301.811 C 325.106 302.606,323.170 303.747,322.400 304.347 C 321.630 304.948,320.256 305.656,319.347 305.921 C 318.439 306.187,317.472 306.673,317.198 307.002 C 316.925 307.331,316.496 307.600,316.244 307.600 C 315.992 307.600,315.123 308.050,314.314 308.600 C 313.505 309.150,312.608 309.602,312.321 309.605 C 312.035 309.608,310.360 310.258,308.600 311.051 C 304.386 312.949,300.399 314.396,299.380 314.398 C 298.929 314.399,298.389 314.561,298.180 314.759 C 297.518 315.384,291.896 317.438,289.400 317.967 C 288.080 318.247,285.560 318.899,283.800 319.416 C 277.749 321.196,276.189 321.556,271.800 322.192 C 269.380 322.542,266.770 323.004,266.000 323.217 C 261.421 324.489,250.310 325.909,240.800 326.438 C 238.600 326.560,237.731 326.956,237.404 327.987 C 236.599 330.525,231.662 332.227,226.851 331.625 C 224.953 331.388,222.860 331.150,222.200 331.097 L 221.000 331.000 220.868 325.200 C 220.675 316.715,221.897 299.538,223.187 292.600 C 223.596 290.400,224.054 287.340,224.205 285.800 C 224.819 279.539,227.241 277.421,234.811 276.524 C 237.077 276.256,237.263 275.917,235.700 274.909 C 235.095 274.519,234.150 273.807,233.600 273.327 C 231.892 271.835,229.481 270.323,227.954 269.784 C 227.150 269.500,225.796 268.830,224.946 268.294 C 222.931 267.025,221.513 266.590,216.200 265.609 C 206.404 263.800,206.338 263.898,205.609 281.400 C 205.223 290.682,203.849 317.753,203.362 325.693 C 203.026 331.163,203.598 330.823,194.263 331.094 L 186.490 331.319 186.188 324.959 C 185.878 318.420,186.219 290.136,186.672 284.816 C 186.964 281.379,189.155 278.331,191.731 277.777 C 192.429 277.627,193.498 277.249,194.106 276.938 C 194.714 276.628,196.046 276.289,197.066 276.186 C 201.994 275.687,202.584 270.220,198.185 265.821 C 195.900 263.536,197.086 262.400,201.756 262.400 L 205.352 262.400 207.511 260.100 C 212.597 254.680,212.161 251.096,206.112 248.619 C 201.240 246.624,196.409 247.846,193.761 251.743 C 192.991 252.877,192.246 253.319,189.646 254.185 C 187.900 254.766,186.041 255.637,185.515 256.121 C 184.989 256.604,183.893 257.504,183.079 258.120 C 182.266 258.737,181.600 259.477,181.600 259.766 C 181.600 260.055,180.925 260.762,180.100 261.337 C 179.275 261.912,178.240 262.939,177.800 263.619 C 177.360 264.300,176.235 265.311,175.300 265.866 C 174.365 266.422,173.600 267.045,173.600 267.252 C 173.600 269.162,167.419 269.626,164.434 267.941 C 157.541 264.051,151.221 265.601,149.604 271.579 C 149.031 273.697,146.977 276.000,145.660 276.000 C 142.781 276.000,141.964 273.240,144.019 270.460 C 145.110 268.985,144.761 268.349,142.506 267.696 C 137.063 266.122,122.778 265.807,120.476 267.210 C 117.649 268.934,116.994 275.580,119.616 275.932 C 127.444 276.983,130.174 279.785,130.982 287.600 C 131.312 290.790,131.945 296.550,132.388 300.400 C 133.346 308.722,134.334 321.032,134.489 326.587 L 134.600 330.573 133.400 331.177 C 132.587 331.586,130.975 331.784,128.400 331.791 C 121.038 331.809,118.028 329.155,116.565 321.352 C 116.226 319.548,115.379 319.036,111.000 317.988 C 109.020 317.515,106.860 316.893,106.200 316.608 C 105.540 316.322,104.280 315.776,103.400 315.394 C 102.520 315.012,100.539 314.388,98.998 314.007 C 97.457 313.627,95.117 312.822,93.798 312.219 C 89.778 310.380,89.053 310.096,87.600 309.790 C 86.830 309.628,85.771 309.159,85.246 308.748 C 84.721 308.337,84.091 307.996,83.846 307.991 C 83.601 307.986,82.950 307.630,82.400 307.200 C 81.850 306.770,81.130 306.413,80.800 306.408 C 80.115 306.396,75.057 303.912,74.110 303.123 C 73.766 302.835,72.627 302.150,71.581 301.600 C 68.957 300.221,63.682 296.610,62.045 295.073 C 59.079 292.286,54.400 287.430,54.400 287.138 C 54.400 286.968,53.578 285.475,52.574 283.821 C 50.464 280.346,50.292 279.840,49.036 273.400 C 48.024 268.218,48.101 236.888,49.141 230.400 C 49.371 228.970,49.766 225.280,50.019 222.200 C 50.470 216.729,50.951 213.668,52.190 208.400 C 52.526 206.970,53.244 203.397,53.784 200.461 C 54.325 197.524,55.387 193.294,56.144 191.061 C 56.901 188.827,57.733 186.010,57.992 184.800 C 58.464 182.597,59.187 180.449,60.213 178.200 C 61.253 175.921,62.400 172.598,62.400 171.863 C 62.400 171.458,62.760 170.669,63.200 170.109 C 63.640 169.550,64.000 168.796,64.000 168.435 C 64.000 168.074,64.279 167.379,64.620 166.892 C 64.962 166.405,65.569 165.060,65.969 163.903 C 66.775 161.577,68.302 158.508,68.810 158.194 C 68.990 158.083,69.458 157.139,69.849 156.096 C 70.241 155.053,71.313 153.019,72.230 151.575 C 73.148 150.132,74.032 148.512,74.195 147.975 C 74.358 147.439,74.806 146.640,75.191 146.200 C 75.575 145.760,76.745 143.960,77.791 142.200 C 78.837 140.440,80.102 138.550,80.601 138.000 C 81.100 137.450,81.784 136.460,82.120 135.800 C 82.457 135.140,83.377 133.980,84.166 133.222 C 84.955 132.463,85.600 131.690,85.600 131.502 C 85.600 130.878,92.571 122.500,96.107 118.874 C 96.818 118.145,97.580 117.362,97.800 117.134 C 104.485 110.195,118.139 98.523,120.708 97.549 C 121.089 97.405,121.846 96.807,122.392 96.220 C 122.937 95.634,124.422 94.582,125.692 93.884 C 126.961 93.186,128.000 92.477,128.000 92.308 C 128.000 92.138,128.248 92.000,128.551 92.000 C 128.854 92.000,129.349 91.701,129.651 91.335 C 129.953 90.969,130.958 90.334,131.883 89.924 C 132.809 89.513,133.673 89.006,133.802 88.797 C 134.145 88.243,138.447 85.777,139.608 85.471 C 140.154 85.327,141.214 84.663,141.964 83.996 C 142.714 83.329,143.794 82.671,144.364 82.533 C 144.934 82.396,147.006 81.482,148.969 80.503 C 150.932 79.524,153.626 78.375,154.957 77.950 C 156.287 77.525,157.741 76.952,158.187 76.677 C 159.656 75.773,163.345 74.503,166.600 73.780 C 168.360 73.389,170.070 72.929,170.400 72.758 C 171.740 72.063,176.738 70.771,180.355 70.184 C 182.470 69.841,186.270 69.217,188.800 68.798 C 203.805 66.315,218.102 65.841,231.400 67.386 M169.296 214.215 C 163.174 216.142,160.522 222.377,163.958 226.763 C 164.578 227.553,165.278 228.571,165.516 229.024 C 166.216 230.362,170.688 232.800,172.441 232.800 C 174.788 232.800,175.750 233.461,177.291 236.134 C 180.207 241.190,184.287 244.400,187.797 244.400 C 191.067 244.400,194.800 242.271,194.800 240.406 C 194.800 238.132,197.624 237.718,198.859 239.810 C 200.030 241.796,200.894 242.153,205.137 242.408 L 208.873 242.632 210.537 244.487 C 212.619 246.809,213.470 247.064,215.540 245.984 C 219.724 243.804,216.466 235.991,211.669 236.702 C 206.799 237.425,200.800 234.785,200.800 231.919 C 200.800 231.571,200.390 231.184,199.889 231.058 C 199.388 230.932,197.563 229.653,195.833 228.215 C 194.103 226.777,192.458 225.600,192.178 225.600 C 191.482 225.600,186.800 221.520,186.800 220.913 C 186.800 220.645,185.801 219.672,184.580 218.750 C 183.360 217.828,182.174 216.726,181.947 216.300 C 180.731 214.029,173.616 212.856,169.296 214.215 M139.945 236.510 C 138.705 237.659,137.316 239.242,136.858 240.026 C 136.400 240.811,135.681 241.765,135.259 242.146 C 133.701 243.557,132.207 248.696,132.754 250.767 C 133.773 254.625,135.000 256.260,138.400 258.288 C 139.390 258.879,140.830 259.851,141.600 260.448 C 144.361 262.591,148.342 263.263,151.035 262.040 C 152.545 261.354,155.200 257.294,155.200 255.670 C 155.200 255.148,157.948 251.117,158.724 250.500 C 159.940 249.533,161.133 249.902,161.958 251.500 C 163.981 255.422,170.032 261.200,172.117 261.200 C 176.474 261.200,182.141 249.743,179.508 246.255 C 178.774 245.283,174.361 245.013,166.291 245.446 L 162.382 245.655 161.756 244.328 C 159.765 240.102,158.468 238.814,155.400 238.014 C 153.216 237.445,150.435 236.006,149.619 235.023 C 149.223 234.546,148.296 234.402,145.651 234.410 L 142.200 234.419 139.945 236.510 M219.697 252.941 C 217.219 255.629,216.465 260.964,218.415 262.008 C 220.319 263.027,226.613 263.383,228.038 262.552 C 229.396 261.760,229.400 261.749,229.517 258.422 L 229.634 255.086 227.618 253.143 C 224.735 250.364,222.134 250.298,219.697 252.941 M161.420 277.152 C 161.629 277.345,162.469 277.717,163.288 277.979 C 166.085 278.872,167.284 281.015,167.630 285.741 C 168.189 293.364,168.482 311.921,168.186 321.021 C 167.813 332.517,168.501 331.600,160.244 331.600 C 152.297 331.600,152.642 331.861,151.774 325.200 C 151.416 322.450,150.961 319.030,150.764 317.600 C 150.567 316.170,150.292 307.350,150.153 298.000 L 149.901 281.000 151.283 279.687 C 153.655 277.434,160.008 275.845,161.420 277.152 M153.100 343.076 C 152.715 343.176,152.085 343.176,151.700 343.076 C 151.315 342.975,151.630 342.893,152.400 342.893 C 153.170 342.893,153.485 342.975,153.100 343.076 M160.500 343.089 C 159.785 343.178,158.615 343.178,157.900 343.089 C 157.185 343.001,157.770 342.928,159.200 342.928 C 160.630 342.928,161.215 343.001,160.500 343.089 " stroke="none" fill="#faf3ea" fill-rule="evenodd"></path><path id="path3" d="M117.300 277.745 C 116.805 277.990,116.400 278.397,116.400 278.650 C 116.400 278.903,115.801 279.985,115.068 281.055 C 113.290 283.652,112.649 286.295,113.153 288.949 C 113.368 290.077,113.755 292.530,114.014 294.400 C 114.274 296.270,114.637 298.160,114.822 298.600 C 115.007 299.040,115.272 301.470,115.410 304.000 C 115.548 306.530,115.846 309.319,116.072 310.199 C 116.300 311.081,116.368 312.972,116.225 314.422 C 115.996 316.745,116.060 317.131,116.783 317.785 C 117.233 318.191,117.600 318.841,117.600 319.229 C 117.600 319.616,117.806 320.002,118.057 320.086 C 118.401 320.200,118.401 320.452,118.057 321.093 C 117.201 322.693,117.579 325.600,118.643 325.600 C 118.949 325.600,119.207 325.825,119.216 326.100 C 119.256 327.350,122.709 330.400,124.085 330.400 C 124.830 330.400,125.637 330.597,125.878 330.838 C 126.354 331.314,130.055 331.138,132.400 330.528 L 133.800 330.163 133.782 327.782 C 133.758 324.769,132.875 312.817,132.364 308.600 C 132.151 306.840,131.803 303.960,131.592 302.200 C 131.381 300.440,131.025 297.560,130.802 295.800 C 130.579 294.040,130.334 290.457,130.257 287.837 C 130.136 283.710,130.016 283.004,129.358 282.543 C 128.941 282.250,128.180 281.648,127.666 281.205 C 127.152 280.762,126.606 280.400,126.452 280.400 C 126.298 280.400,125.862 279.875,125.483 279.233 C 124.848 278.158,124.580 278.053,122.097 277.913 C 120.614 277.828,119.130 277.656,118.800 277.530 C 118.470 277.404,117.795 277.501,117.300 277.745 M194.400 277.600 C 194.070 277.813,193.395 277.991,192.900 277.994 C 192.405 277.997,192.000 278.173,192.000 278.384 C 192.000 278.595,191.119 279.592,190.042 280.599 C 188.117 282.400,188.084 282.470,188.106 284.797 C 188.119 286.137,187.911 287.425,187.628 287.767 C 187.057 288.455,186.750 329.281,187.311 329.844 C 187.567 330.100,202.041 330.135,202.235 329.880 C 202.268 329.836,202.404 325.840,202.537 321.000 C 202.670 316.160,202.853 311.840,202.944 311.400 C 203.035 310.960,203.223 307.090,203.363 302.800 C 203.503 298.510,203.748 293.380,203.908 291.400 C 204.398 285.352,204.261 283.538,203.265 282.876 C 202.789 282.561,202.400 282.048,202.400 281.738 C 202.400 281.427,201.770 280.801,201.000 280.347 C 200.230 279.893,199.600 279.282,199.600 278.989 C 199.600 277.478,196.054 276.531,194.400 277.600 M154.641 278.963 C 154.208 280.000,153.788 280.373,152.942 280.470 C 152.238 280.552,151.642 280.957,151.344 281.556 C 150.738 282.779,150.897 306.651,151.545 311.624 C 151.790 313.506,152.092 316.926,152.216 319.224 C 152.863 331.259,152.637 331.072,165.489 330.239 C 166.198 330.193,166.918 330.016,167.089 329.845 C 167.850 329.083,167.425 289.116,166.633 286.956 C 166.005 285.247,165.959 284.692,166.352 283.566 C 166.896 282.005,165.987 280.300,164.493 280.077 C 164.038 280.009,163.160 279.484,162.541 278.910 C 161.569 278.010,160.994 277.848,158.317 277.726 L 155.217 277.585 154.641 278.963 M229.968 278.020 C 229.447 278.342,230.155 280.000,230.814 280.000 C 231.420 280.000,231.267 281.126,230.500 282.302 L 229.800 283.376 229.600 281.788 C 229.126 278.028,226.008 279.744,225.987 283.776 C 225.975 286.040,225.268 287.934,224.660 287.327 C 224.517 287.184,224.392 288.312,224.383 289.833 C 224.373 291.355,224.179 293.410,223.951 294.400 C 223.723 295.390,223.378 298.000,223.183 300.200 C 222.988 302.400,222.655 304.920,222.443 305.800 C 222.231 306.680,221.930 312.449,221.775 318.620 L 221.491 329.840 224.646 330.386 C 235.703 332.299,238.400 328.337,238.400 310.177 C 238.400 308.650,238.676 306.140,239.014 304.600 C 239.351 303.060,239.726 301.170,239.846 300.400 C 239.966 299.630,240.217 298.640,240.405 298.200 C 240.592 297.760,240.829 296.860,240.931 296.200 C 241.032 295.540,241.405 293.707,241.758 292.127 C 242.754 287.668,242.081 283.612,239.966 281.317 C 239.105 280.382,238.400 279.254,238.400 278.809 C 238.400 278.364,238.175 277.978,237.900 277.950 C 235.852 277.746,230.333 277.794,229.968 278.020 M160.800 280.480 C 160.800 281.126,160.682 281.242,160.355 280.915 C 160.110 280.670,160.031 280.274,160.178 280.035 C 160.592 279.365,160.800 279.514,160.800 280.480 M128.800 287.400 C 128.800 287.704,128.620 288.064,128.400 288.200 C 128.172 288.341,128.000 287.996,128.000 287.400 C 128.000 286.804,128.172 286.459,128.400 286.600 C 128.620 286.736,128.800 287.096,128.800 287.400 M157.772 287.645 C 157.472 288.131,155.705 288.094,155.398 287.597 C 155.041 287.018,156.884 286.399,157.496 286.891 C 157.768 287.111,157.893 287.450,157.772 287.645 M128.635 309.098 C 128.205 309.528,127.977 308.926,128.279 308.157 C 128.562 307.436,128.583 307.435,128.724 308.131 C 128.804 308.534,128.765 308.969,128.635 309.098 M155.594 321.524 C 155.583 323.384,154.942 323.832,154.672 322.168 C 154.539 321.347,154.526 320.520,154.643 320.331 C 155.027 319.708,155.600 320.427,155.594 321.524 M121.457 323.005 C 121.758 323.790,120.911 324.800,119.951 324.800 C 119.383 324.800,119.200 324.507,119.200 323.600 C 119.200 322.265,120.992 321.793,121.457 323.005 " stroke="none" fill="#eb6b33" fill-rule="evenodd"></path><path id="path4" d="M128.400 127.660 C 127.410 127.891,126.404 128.239,126.165 128.434 C 125.926 128.630,124.987 129.052,124.079 129.372 C 119.190 131.097,112.341 138.731,110.176 144.869 C 107.843 151.480,108.895 162.068,112.278 166.041 C 112.914 166.789,113.747 167.896,114.128 168.502 C 116.386 172.093,125.746 174.831,131.085 173.462 C 145.134 169.858,153.716 155.039,150.259 140.353 C 148.193 131.579,137.709 125.491,128.400 127.660 M138.504 128.753 C 139.437 129.167,140.755 129.716,141.433 129.973 C 150.145 133.281,153.223 149.328,147.192 160.000 C 141.684 169.747,128.752 176.099,121.762 172.491 C 121.343 172.275,120.370 171.798,119.600 171.432 C 116.678 170.043,114.766 168.694,114.219 167.637 C 113.908 167.035,113.384 166.319,113.055 166.046 C 110.207 163.682,108.809 155.300,110.050 148.033 C 111.210 141.235,118.619 131.798,124.200 130.009 C 125.080 129.727,126.026 129.316,126.302 129.097 C 127.902 127.827,135.910 127.601,138.504 128.753 M252.000 141.610 C 238.066 143.200,228.381 160.735,232.829 176.319 C 233.718 179.434,234.525 181.423,235.239 182.264 C 235.829 182.959,236.645 184.091,237.052 184.780 C 238.665 187.511,243.218 190.352,248.000 191.612 C 252.357 192.760,259.892 191.069,263.425 188.151 C 266.770 185.388,269.618 182.246,270.632 180.200 C 271.177 179.100,272.138 177.210,272.768 176.000 C 274.879 171.942,275.423 162.329,273.867 156.595 C 271.654 148.443,262.052 140.567,255.167 141.257 C 254.855 141.288,253.430 141.447,252.000 141.610 M258.800 142.366 C 265.938 143.539,272.901 152.001,274.037 160.883 C 274.841 167.170,273.076 176.793,270.869 178.158 C 270.645 178.296,270.340 178.961,270.192 179.636 C 269.625 182.220,262.676 188.739,259.379 189.781 C 258.291 190.125,256.811 190.598,256.092 190.832 C 251.818 192.223,244.415 190.703,241.007 187.736 C 239.911 186.781,238.893 186.000,238.745 186.000 C 238.597 186.000,238.026 185.235,237.476 184.300 C 236.926 183.365,236.009 182.164,235.438 181.630 C 234.867 181.097,234.399 180.377,234.397 180.030 C 234.395 179.684,234.037 178.230,233.601 176.800 C 233.165 175.370,232.619 172.760,232.389 171.000 C 231.918 167.396,232.201 165.354,234.279 157.365 C 234.744 155.575,237.461 151.462,240.000 148.704 C 242.004 146.527,242.947 145.866,247.532 143.416 C 249.988 142.105,254.595 141.675,258.800 142.366 M136.688 193.446 C 134.976 195.109,134.680 198.199,135.776 203.000 C 137.312 209.735,138.132 212.752,138.830 214.244 C 139.254 215.148,139.600 216.069,139.600 216.290 C 139.600 216.511,139.949 217.136,140.375 217.678 C 140.802 218.220,141.276 219.189,141.429 219.832 C 141.772 221.268,144.211 225.745,145.013 226.411 C 145.336 226.679,145.600 227.212,145.600 227.595 C 145.600 231.229,150.812 231.628,153.431 228.195 C 154.021 227.421,155.086 226.512,155.797 226.175 C 157.020 225.594,158.000 224.198,158.000 223.036 C 158.000 222.746,157.145 221.322,156.100 219.870 C 153.290 215.968,151.635 212.918,150.743 210.000 C 146.153 194.983,144.406 192.003,140.188 192.001 C 138.418 192.000,137.998 192.173,136.688 193.446 M143.011 193.649 C 144.955 194.962,145.077 195.158,146.329 199.000 C 147.556 202.765,148.865 206.164,149.249 206.580 C 149.442 206.789,149.600 207.422,149.600 207.986 C 149.600 209.453,150.947 212.935,152.375 215.161 C 153.049 216.211,153.600 217.197,153.600 217.353 C 153.600 217.508,154.500 218.824,155.600 220.277 C 157.955 223.388,157.947 223.344,156.384 224.726 C 155.715 225.316,154.286 226.643,153.209 227.672 C 149.836 230.897,147.627 230.986,146.387 227.949 C 146.084 227.207,145.088 225.430,144.174 224.000 C 143.260 222.570,142.306 220.770,142.056 220.000 C 141.805 219.230,140.960 217.340,140.178 215.800 C 139.397 214.260,138.569 212.100,138.338 211.000 C 137.834 208.594,137.471 207.038,136.609 203.600 C 134.416 194.847,137.556 189.967,143.011 193.649 M175.134 198.918 C 174.040 199.413,170.400 202.610,170.400 203.076 C 170.400 203.219,169.837 204.557,169.150 206.049 C 167.430 209.780,167.485 209.843,172.679 210.090 C 177.346 210.311,179.212 210.936,181.474 213.035 C 182.093 213.610,183.092 214.335,183.693 214.647 C 184.896 215.271,185.556 216.372,186.552 219.421 C 187.294 221.692,190.128 224.735,192.293 225.584 C 196.430 227.207,196.667 221.130,192.634 216.836 C 190.292 214.342,187.761 209.888,186.453 205.958 C 184.663 200.579,179.105 197.123,175.134 198.918 M179.881 199.687 C 182.857 200.982,186.400 205.288,186.400 207.609 C 186.400 208.930,190.573 216.486,191.958 217.672 C 194.164 219.561,195.365 225.200,193.562 225.200 C 191.573 225.200,188.037 221.483,187.002 218.304 C 185.488 213.657,179.351 209.816,172.700 209.353 C 168.459 209.058,168.456 209.056,169.543 206.884 C 169.952 206.068,170.397 204.937,170.533 204.372 C 171.285 201.233,176.932 198.403,179.881 199.687 M224.107 206.118 C 223.396 206.383,222.258 207.275,221.578 208.100 C 220.898 208.925,220.064 209.600,219.725 209.600 C 219.386 209.600,218.544 210.195,217.854 210.921 C 217.164 211.648,215.430 213.161,214.000 214.282 C 207.536 219.353,200.888 227.968,201.736 230.177 C 202.050 230.995,208.479 231.036,211.471 230.239 C 215.522 229.161,221.157 224.423,229.492 215.087 C 233.534 210.559,229.630 204.057,224.107 206.118 M228.911 207.353 C 230.393 208.726,231.023 211.078,230.337 212.670 C 229.446 214.737,220.130 224.264,216.420 226.903 C 209.462 231.852,199.181 231.722,203.522 226.740 C 204.164 226.003,205.007 224.770,205.395 224.000 C 206.171 222.460,214.006 214.630,215.600 213.801 C 216.150 213.515,217.189 212.633,217.910 211.841 C 218.630 211.048,219.393 210.400,219.605 210.400 C 219.818 210.400,220.985 209.500,222.200 208.400 C 224.853 205.997,227.075 205.651,228.911 207.353 M118.000 276.748 C 118.000 277.000,117.302 277.486,116.448 277.827 C 113.381 279.055,111.519 284.921,112.584 290.000 C 113.278 293.311,114.000 299.081,115.013 309.400 C 115.380 313.140,115.738 316.261,115.810 316.337 C 116.252 316.802,116.442 312.246,116.064 310.220 C 115.816 308.889,115.509 305.910,115.381 303.600 C 115.254 301.290,115.000 299.040,114.818 298.600 C 114.635 298.160,114.274 296.270,114.014 294.400 C 113.755 292.530,113.368 290.077,113.153 288.949 C 112.649 286.295,113.290 283.652,115.068 281.055 C 115.801 279.985,116.401 278.905,116.403 278.655 C 116.408 277.907,118.400 277.172,119.225 277.613 C 119.622 277.826,121.029 278.000,122.351 278.000 C 124.598 278.000,124.801 278.078,125.464 279.200 C 125.854 279.860,126.314 280.400,126.486 280.400 C 126.659 280.400,127.146 280.746,127.570 281.170 C 127.993 281.593,128.701 282.133,129.143 282.370 C 129.585 282.606,130.022 283.295,130.113 283.900 C 130.249 284.794,130.291 284.721,130.340 283.514 C 130.422 281.490,128.680 279.566,125.314 277.959 C 122.543 276.636,118.000 275.884,118.000 276.748 M195.400 276.679 C 192.552 277.342,190.076 278.645,188.684 280.213 L 187.168 281.922 186.769 287.861 C 186.549 291.127,186.422 302.170,186.485 312.400 L 186.600 331.000 189.000 331.133 C 192.329 331.317,201.758 330.796,202.413 330.392 C 202.807 330.148,203.033 328.268,203.261 323.330 C 203.431 319.628,203.747 313.360,203.962 309.400 C 204.178 305.440,204.574 297.855,204.842 292.546 L 205.329 282.891 203.765 281.310 C 202.904 280.440,201.660 279.140,201.000 278.422 C 199.292 276.562,197.842 276.111,195.400 276.679 M156.000 277.200 C 155.399 277.588,155.927 277.664,160.000 277.775 C 160.932 277.800,161.778 278.170,162.533 278.883 C 163.156 279.471,164.038 280.009,164.493 280.077 C 165.987 280.300,166.896 282.005,166.352 283.566 C 165.959 284.692,166.005 285.247,166.633 286.956 C 167.425 289.116,167.850 329.083,167.089 329.845 C 166.918 330.016,166.198 330.193,165.489 330.239 C 152.637 331.072,152.863 331.259,152.216 319.224 C 152.092 316.926,151.790 313.506,151.545 311.624 C 150.896 306.642,150.738 282.778,151.346 281.558 C 151.630 280.989,152.289 280.523,152.982 280.402 C 154.053 280.216,155.824 277.600,154.879 277.600 C 154.005 277.600,150.730 280.128,150.349 281.097 C 149.815 282.454,150.198 309.700,150.840 316.000 C 151.313 320.649,152.772 330.430,153.062 330.900 C 153.164 331.065,156.367 331.200,160.180 331.200 L 167.113 331.200 167.397 330.100 C 168.915 324.217,167.955 283.203,166.235 280.475 C 164.643 277.949,158.087 275.851,156.000 277.200 M231.400 277.179 C 230.342 277.606,233.924 278.205,235.169 277.810 C 236.565 277.367,238.400 277.952,238.400 278.841 C 238.400 279.268,239.112 280.391,239.983 281.335 C 241.312 282.777,241.630 283.465,241.965 285.626 L 242.364 288.200 242.232 285.545 C 241.904 278.961,236.785 275.007,231.400 277.179 M198.971 277.829 C 199.317 278.174,199.600 278.697,199.600 278.989 C 199.600 279.282,200.230 279.893,201.000 280.347 C 201.770 280.801,202.400 281.427,202.400 281.738 C 202.400 282.048,202.789 282.561,203.265 282.876 C 204.261 283.538,204.398 285.352,203.908 291.400 C 203.748 293.380,203.503 298.510,203.363 302.800 C 203.223 307.090,203.035 310.960,202.944 311.400 C 202.853 311.840,202.670 316.160,202.537 321.000 C 202.404 325.840,202.268 329.836,202.235 329.880 C 202.041 330.135,187.567 330.100,187.311 329.844 C 186.750 329.281,187.057 288.455,187.628 287.767 C 187.911 287.425,188.119 286.137,188.106 284.797 C 188.084 282.470,188.117 282.400,190.042 280.599 C 191.119 279.592,192.000 278.595,192.000 278.384 C 192.000 278.173,192.405 277.997,192.900 277.994 C 193.395 277.991,194.070 277.813,194.400 277.600 C 195.358 276.981,198.269 277.126,198.971 277.829 M228.183 278.425 C 225.835 279.566,223.490 285.403,224.635 287.257 C 225.179 288.137,225.975 286.087,225.987 283.776 C 226.008 279.744,229.126 278.028,229.600 281.788 L 229.800 283.376 230.500 282.302 C 231.267 281.126,231.420 280.000,230.814 280.000 C 230.075 280.000,229.460 278.335,230.059 277.955 C 231.060 277.321,229.815 277.633,228.183 278.425 M160.178 280.035 C 160.031 280.274,160.110 280.670,160.355 280.915 C 160.682 281.242,160.800 281.126,160.800 280.480 C 160.800 279.514,160.592 279.365,160.178 280.035 M128.000 287.400 C 128.000 287.996,128.172 288.341,128.400 288.200 C 128.620 288.064,128.800 287.704,128.800 287.400 C 128.800 287.096,128.620 286.736,128.400 286.600 C 128.172 286.459,128.000 286.804,128.000 287.400 M156.074 286.843 C 155.565 287.035,155.261 287.375,155.398 287.597 C 155.705 288.094,157.472 288.131,157.772 287.645 C 158.169 287.004,157.048 286.474,156.074 286.843 M130.479 291.500 C 130.633 293.865,131.028 297.960,131.358 300.600 C 131.688 303.240,132.137 306.840,132.355 308.600 C 132.867 312.729,133.758 324.706,133.782 327.782 L 133.800 330.163 132.400 330.528 C 130.055 331.138,126.354 331.314,125.878 330.838 C 125.637 330.597,124.830 330.400,124.085 330.400 C 122.709 330.400,119.256 327.350,119.216 326.100 C 119.207 325.825,118.945 325.600,118.633 325.600 C 118.322 325.600,117.976 325.375,117.865 325.100 C 117.754 324.825,117.656 324.780,117.648 325.000 C 117.483 329.366,125.069 332.885,131.600 331.473 C 134.701 330.802,134.852 330.652,134.624 328.470 C 134.516 327.442,134.225 323.450,133.978 319.600 C 133.572 313.288,133.179 309.203,131.983 298.900 C 131.160 291.810,130.814 288.571,130.807 287.900 C 130.803 287.515,130.665 287.200,130.500 287.200 C 130.335 287.200,130.326 289.135,130.479 291.500 M223.923 289.400 C 223.141 293.907,222.420 299.520,222.047 304.000 C 220.946 317.199,220.741 320.985,220.866 325.800 L 221.000 331.000 224.600 331.285 C 232.126 331.880,233.655 331.576,236.463 328.925 C 237.778 327.683,237.826 327.407,238.607 316.600 C 239.081 310.045,239.506 306.780,240.277 303.800 C 241.721 298.215,242.360 294.569,242.345 292.000 L 242.333 289.800 241.772 292.200 C 241.463 293.520,241.104 295.230,240.973 296.000 C 240.843 296.770,240.585 297.760,240.400 298.200 C 240.215 298.640,239.966 299.630,239.846 300.400 C 239.726 301.170,239.351 303.060,239.014 304.600 C 238.676 306.140,238.400 308.650,238.400 310.177 C 238.400 328.337,235.703 332.299,224.646 330.386 L 221.491 329.840 221.775 318.620 C 221.930 312.449,222.231 306.680,222.443 305.800 C 222.655 304.920,222.988 302.400,223.183 300.200 C 223.379 298.000,223.741 295.249,223.990 294.087 C 224.238 292.925,224.387 291.035,224.320 289.887 L 224.200 287.800 223.923 289.400 M128.279 308.157 C 128.115 308.574,128.075 309.009,128.191 309.124 C 128.555 309.489,128.876 308.891,128.724 308.131 C 128.583 307.435,128.562 307.436,128.279 308.157 M116.014 317.838 C 116.059 320.265,117.600 325.320,117.600 323.040 C 117.600 322.439,117.806 321.563,118.057 321.093 C 118.401 320.452,118.401 320.200,118.057 320.086 C 117.806 320.002,117.600 319.616,117.600 319.229 C 117.600 318.841,117.240 318.198,116.800 317.800 C 116.027 317.100,116.000 317.101,116.014 317.838 M154.643 320.331 C 154.526 320.520,154.539 321.347,154.672 322.168 C 154.942 323.832,155.583 323.384,155.594 321.524 C 155.600 320.427,155.027 319.708,154.643 320.331 M119.200 323.600 C 119.200 324.943,120.305 325.278,121.196 324.205 C 121.907 323.348,121.391 322.400,120.213 322.400 C 119.354 322.400,119.200 322.583,119.200 323.600 M151.700 343.076 C 152.085 343.176,152.715 343.176,153.100 343.076 C 153.485 342.975,153.170 342.893,152.400 342.893 C 151.630 342.893,151.315 342.975,151.700 343.076 M157.900 343.089 C 158.615 343.178,159.785 343.178,160.500 343.089 C 161.215 343.001,160.630 342.928,159.200 342.928 C 157.770 342.928,157.185 343.001,157.900 343.089 M165.100 343.482 C 165.595 343.578,166.405 343.578,166.900 343.482 C 167.395 343.387,166.990 343.309,166.000 343.309 C 165.010 343.309,164.605 343.387,165.100 343.482 M174.300 343.489 C 175.015 343.578,176.185 343.578,176.900 343.489 C 177.615 343.401,177.030 343.328,175.600 343.328 C 174.170 343.328,173.585 343.401,174.300 343.489 M186.300 343.489 C 187.015 343.578,188.185 343.578,188.900 343.489 C 189.615 343.401,189.030 343.328,187.600 343.328 C 186.170 343.328,185.585 343.401,186.300 343.489 " stroke="none" fill="#dc7a32" fill-rule="evenodd"></path></g></svg>